<svg xmlns="http://www.w3.org/2000/svg" viewBox="0 0 32 32" width="32" height="32">
  <!-- Background -->
  <rect width="32" height="32" rx="6" fill="#3B7DD8"/>

  <!-- Ice hockey stick and puck stylized icon -->
  <g fill="white">
    <!-- Hockey stick blade -->
    <path d="M8 22h8c1.1 0 2-.9 2-2v-1c0-.55-.45-1-1-1H9c-.55 0-1 .45-1 1v3z"/>

    <!-- Hockey stick shaft -->
    <path d="M16 18l6-10c.3-.5.1-1.1-.4-1.4-.5-.3-1.1-.1-1.4.4l-6 10c-.1.2-.2.4-.2.6V20c0 .55.45 1 1 1s1-.45 1-1v-2z"/>

    <!-- Puck -->
    <ellipse cx="24" cy="24" rx="4" ry="2"/>
  </g>
</svg>
