<svg width="120" height="120" viewBox="0 0 120 120" fill="none" xmlns="http://www.w3.org/2000/svg">
  <!-- Background Circle -->
  <circle cx="60" cy="60" r="58" fill="#EEF2FF" stroke="#1E3FAE" stroke-width="2" stroke-dasharray="4 4"/>

  <!-- Ice Rink Base -->
  <ellipse cx="60" cy="85" rx="35" ry="8" fill="#E0E7FF"/>
  <ellipse cx="60" cy="85" rx="28" ry="5" fill="#C7D2FE"/>

  <!-- Hockey Stick -->
  <path d="M32 65 L48 90 L52 88 L38 63 L32 65Z" fill="#8B5A2B" stroke="#6B4423" stroke-width="1"/>
  <path d="M48 90 L56 95 L58 92 L52 88Z" fill="#4A3728" stroke="#3D2E21" stroke-width="1"/>

  <!-- Puck -->
  <ellipse cx="70" cy="88" rx="8" ry="3" fill="#1F2937"/>
  <ellipse cx="70" cy="87" rx="8" ry="3" fill="#374151"/>

  <!-- Admin Character Body -->
  <path d="M60 40 C50 40 45 50 45 60 L45 72 C45 75 48 78 52 78 L68 78 C72 78 75 75 75 72 L75 60 C75 50 70 40 60 40Z" fill="#1E3FAE"/>

  <!-- Admin Tie/Badge Area -->
  <path d="M57 55 L60 78 L63 55 Z" fill="#F59E0B"/>

  <!-- Admin Character Head -->
  <circle cx="60" cy="32" r="16" fill="#FBBF8C"/>

  <!-- Hair -->
  <path d="M45 28 C45 20 52 14 60 14 C68 14 75 20 75 28 L75 25 C75 18 68 12 60 12 C52 12 45 18 45 25 Z" fill="#374151"/>

  <!-- Eyes -->
  <ellipse cx="54" cy="32" rx="2" ry="2.5" fill="#1F2937"/>
  <ellipse cx="66" cy="32" rx="2" ry="2.5" fill="#1F2937"/>
  <circle cx="55" cy="31" r="0.8" fill="white"/>
  <circle cx="67" cy="31" r="0.8" fill="white"/>

  <!-- Smile -->
  <path d="M54 38 Q60 43 66 38" stroke="#1F2937" stroke-width="2" stroke-linecap="round" fill="none"/>

  <!-- Glasses -->
  <rect x="49" y="29" width="10" height="7" rx="2" stroke="#374151" stroke-width="1.5" fill="none"/>
  <rect x="61" y="29" width="10" height="7" rx="2" stroke="#374151" stroke-width="1.5" fill="none"/>
  <line x1="59" y1="32" x2="61" y2="32" stroke="#374151" stroke-width="1.5"/>

  <!-- Clipboard in Hand -->
  <rect x="78" y="50" width="18" height="24" rx="2" fill="white" stroke="#94A3B8" stroke-width="1"/>
  <rect x="81" y="48" width="12" height="4" rx="1" fill="#94A3B8"/>
  <line x1="82" y1="56" x2="92" y2="56" stroke="#CBD5E1" stroke-width="2"/>
  <line x1="82" y1="61" x2="90" y2="61" stroke="#CBD5E1" stroke-width="2"/>
  <line x1="82" y1="66" x2="88" y2="66" stroke="#CBD5E1" stroke-width="2"/>

  <!-- Check marks on clipboard -->
  <path d="M83 55 L84 56 L86 54" stroke="#22C55E" stroke-width="1.5" stroke-linecap="round" stroke-linejoin="round"/>
  <path d="M83 60 L84 61 L86 59" stroke="#22C55E" stroke-width="1.5" stroke-linecap="round" stroke-linejoin="round"/>

  <!-- Admin Hand holding clipboard -->
  <ellipse cx="77" cy="62" rx="4" ry="5" fill="#FBBF8C"/>

  <!-- Sparkles/Stars -->
  <path d="M25 25 L27 30 L32 32 L27 34 L25 39 L23 34 L18 32 L23 30 Z" fill="#F59E0B"/>
  <path d="M90 20 L91 23 L94 24 L91 25 L90 28 L89 25 L86 24 L89 23 Z" fill="#1E3FAE"/>
  <circle cx="95" cy="45" r="2" fill="#22C55E"/>
  <circle cx="20" cy="50" r="1.5" fill="#1E3FAE"/>
</svg>